<?xml version="1.0" encoding="utf-8"?>
<!-- Generator: Adobe Illustrator 27.5.0, SVG Export Plug-In . SVG Version: 6.00 Build 0)  -->
<svg version="1.1" id="Layer_1" xmlns="http://www.w3.org/2000/svg" xmlns:xlink="http://www.w3.org/1999/xlink" x="0px" y="0px"
	 viewBox="-16071.909 -517.155 4255.97 3412.609" style="enable-background:new -16071.909 -517.155 4255.97 3412.609;"
	 xml:space="preserve">
<rect x="-16071.909" y="-517.155" style="fill:#FFFFFF;" width="4255.97" height="3412.609"/>
<radialGradient id="SVGID_1_" cx="-14301.4209" cy="27720.6855" r="458.4776" fx="-14558.7773" fy="27730.5195" gradientTransform="matrix(1.1982 0 0 0.2963 2845.6001 -6437.4521)" gradientUnits="userSpaceOnUse">
	<stop  offset="0" style="stop-color:#000000"/>
	<stop  offset="0.0605" style="stop-color:#282828"/>
	<stop  offset="0.1471" style="stop-color:#5A5A5A"/>
	<stop  offset="0.2381" style="stop-color:#868686"/>
	<stop  offset="0.3319" style="stop-color:#ABABAB"/>
	<stop  offset="0.429" style="stop-color:#CACACA"/>
	<stop  offset="0.5307" style="stop-color:#E1E1E1"/>
	<stop  offset="0.6388" style="stop-color:#F2F2F2"/>
	<stop  offset="0.7577" style="stop-color:#FCFCFC"/>
	<stop  offset="0.9088" style="stop-color:#FFFFFF"/>
</radialGradient>
<ellipse style="opacity:0.63;fill:url(#SVGID_1_);" cx="-14290.076" cy="1776.271" rx="758.297" ry="168.909"/>
<g>
	<g>
		<path style="fill-rule:evenodd;clip-rule:evenodd;fill:#1E1E1E;" d="M-14148.907,873.99c49.751,0,90.332-40.556,90.332-90.279
			c0-49.723-40.581-90.218-90.332-90.218c-49.757,0-90.272,40.495-90.272,90.218
			C-14239.18,833.434-14198.664,873.99-14148.907,873.99L-14148.907,873.99z"/>
	</g>
	<g>
		<path style="fill:#1E1E1E;" d="M-14028.754,1376.627c-5.11,0-10.302-0.988-15.313-3.075l-119.354-49.723
			c-20.325-8.468-29.938-31.808-21.471-52.131c8.466-20.325,31.811-29.937,52.131-21.471l119.355,49.723
			c20.324,8.467,29.938,31.807,21.472,52.13C-13998.314,1367.395-14013.138,1376.627-14028.754,1376.627z"/>
	</g>
	<g>
		<path style="fill:#1E1E1E;" d="M-14012.798,1251.254c-5.106,0-10.299-0.987-15.311-3.073l-163.58-68.119
			c-20.322-8.464-29.941-31.803-21.476-52.128c8.464-20.328,31.804-29.943,52.129-21.478l163.579,68.119
			c20.325,8.465,29.942,31.803,21.477,52.129C-13982.357,1242.018-13997.183,1251.254-14012.798,1251.254z"/>
	</g>
	<g>
		<path style="fill:#1E1E1E;" d="M-14010.348,1125.063c-5.104,0-10.295-0.987-15.304-3.072l-94.104-39.176
			c-20.327-8.461-29.943-31.799-21.479-52.125c8.458-20.327,31.797-29.948,52.123-21.482l94.104,39.175
			c20.326,8.461,29.946,31.799,21.483,52.126C-13979.9,1115.826-13994.728,1125.063-14010.348,1125.063z"/>
	</g>
	<g>
		<path style="fill:#1E1E1E;" d="M-14571.647,1703.9c-8.463,0-16.987-2.683-24.224-8.227c-17.475-13.394-20.785-38.417-7.39-55.892
			l321.508-419.506c13.392-17.476,38.417-20.782,55.893-7.392c17.474,13.394,20.785,38.418,7.39,55.892l-321.509,419.507
			C-14547.824,1698.522-14559.671,1703.9-14571.647,1703.9z"/>
	</g>
	<g>
		<path style="fill:#1E1E1E;" d="M-14104.461,1085.879c-8.466,0-16.995-2.683-24.231-8.231
			c-17.471-13.398-20.773-38.422-7.378-55.894l62.002-80.862c13.396-17.473,38.421-20.775,55.895-7.378
			c17.474,13.398,20.775,38.421,7.38,55.895l-62.003,80.862C-14080.646,1080.505-14092.489,1085.879-14104.461,1085.879z"/>
	</g>
	<g>
		<path style="fill:#1E1E1E;" d="M-14192.02,996.173c-5.113,0-10.312-0.99-15.325-3.081l-163.521-68.182
			c-20.32-8.473-29.927-31.815-21.454-52.137c8.474-20.322,31.818-29.927,52.14-21.454l163.519,68.182
			c20.322,8.474,29.927,31.815,21.454,52.138C-14161.592,986.946-14176.409,996.173-14192.02,996.173z"/>
	</g>
	<g>
		<path style="fill:#1E1E1E;" d="M-13954.011,885.984c-8.462,0-16.988-2.683-24.226-8.229c-17.473-13.396-20.782-38.42-7.387-55.893
			l146.495-191.107c13.396-17.475,38.419-20.782,55.895-7.386c17.473,13.396,20.78,38.42,7.384,55.894l-146.491,191.106
			C-13930.191,880.607-13942.036,885.984-13954.011,885.984z"/>
	</g>
	<g>
		<path style="fill:#1E1E1E;" d="M-14315.663,1178.669c-8.456,0-16.979-2.68-24.213-8.219c-17.479-13.39-20.793-38.413-7.403-55.891
			l61.938-80.862c13.391-17.48,38.412-20.794,55.893-7.407c17.478,13.389,20.794,38.413,7.407,55.891l-61.942,80.862
			C-14291.831,1173.289-14303.681,1178.669-14315.663,1178.669z"/>
	</g>
</g>
<g>
	<path style="fill:#1E1E1E;" d="M-13822.479,1099.372h19.193v-29.647h25.919v29.647h19.2v-78.231h-19.2v29.649h-25.919v-29.649
		h-19.193V1099.372z M-13730.503,1099.372h53.852v-18.935h-33.905v-10.712h25.929v-18.935h-25.929v-10.712h33.905v-18.936h-53.852
		V1099.372z M-13614.834,1061.501l4.993,10.463h-10.226L-13614.834,1061.501z M-13634.274,1099.372l5.727-11.712h26.931
		l5.983,11.712h20.688l-37.889-77.978h-4.498l-37.631,77.978H-13634.274z M-13550.272,1099.372h53.849v-18.935h-34.905v-59.296
		h-18.943V1099.372z M-13489.199,1040.325h19.944l0.248,59.047h21.688l-0.743-59.047h19.936v-19.184h-61.073V1040.325z
		 M-13403.445,1099.372h18.953v-29.647h26.168v29.647h19.192v-78.231h-19.192v29.649h-26.168v-29.649h-18.953V1099.372z
		 M-13288.778,1065.985v33.388h21.44v-33.388l25.929-44.844h-21.688l-14.96,25.164l-14.952-25.164h-21.442L-13288.778,1065.985z"/>
	<path style="fill:#1E1E1E;" d="M-13135.72,1073.213c1.25,0,1.25,1.491,0.249,4.484c-0.991,2.987-2.734,6.476-5.231,10.959
		c-2.496,4.484-5.736,9.22-9.472,14.452c-3.489,4.984-7.48,9.959-11.97,14.2c-4.232,4.48-8.72,8.215-13.455,11.208
		c-4.736,2.992-9.473,4.488-13.962,4.488c-3.991,0-7.975-1-11.472-2.744c-3.488-1.744-6.728-4.232-9.472-7.472
		c-2.488-3.24-4.736-6.976-6.232-11.465c-1.495-4.478-2.24-9.463-2.24-14.694c0-4.232,1.001-9.965,2.992-16.693
		c1.992-6.723,4.735-14.2,8.225-22.172c3.487-8.22,7.727-16.691,12.217-25.411c4.487-8.72,9.472-17.44,14.455-25.909
		c4.985-8.72,10.225-16.943,15.209-24.663c5.232-7.724,10.216-14.452,14.703-20.18c4.737-5.979,8.978-10.464,12.713-13.952
		c3.745-3.488,6.737-5.232,8.977-5.232c1.993,0,2.248,2.244,1.247,6.476c-0.999,3.988-2.991,9.716-5.983,16.944
		c-3.239,6.976-6.976,15.196-11.216,24.412c-4.488,9.22-9.225,18.688-14.208,28.651c-4.736,9.964-9.72,19.932-14.714,29.896
		c-4.982,10.211-9.215,19.432-13.207,28.151c-3.735,8.72-6.976,16.191-9.474,22.92c-2.495,6.48-3.735,11.455-3.735,14.447
		c0,4.24,1.993,6.232,6.233,6.232c2.736,0,5.975-1.249,9.72-3.489c3.735-2.496,7.729-5.231,11.713-8.719
		c3.992-3.736,7.976-7.472,11.967-11.464c3.984-4.231,7.729-7.972,10.97-11.459c3.488-3.484,6.479-6.477,8.976-8.715
		C-13138.71,1074.457-13136.719,1073.213-13135.72,1073.213L-13135.72,1073.213z M-13070.909,1073.213c1.001,0,1.249,1.491,0,4.484
		c-0.991,2.987-2.735,6.476-5.231,10.959c-2.488,4.484-5.479,9.22-9.225,14.452c-3.736,4.984-7.728,9.959-12.216,14.2
		c-4.232,4.48-8.721,8.215-13.457,11.208c-4.735,2.992-9.471,4.488-13.961,4.488c-5.982,0-10.968-1-14.96-3.24
		c-3.984-1.992-7.224-4.736-9.472-7.976c-2.488-3.232-3.983-6.976-4.982-11.208c-0.993-4.231-1.497-8.473-1.497-12.704
		c0-3.984,0.504-8.472,2-13.456c1.239-4.979,2.983-10.211,5.232-15.443c1.992-5.232,4.239-10.216,6.976-15.195
		c2.496-4.984,4.735-9.468,7.232-13.457c2.238-3.735,4.24-6.976,6.23-9.215c1.745-2.492,2.992-3.736,3.984-3.736
		c1.754,0,3.498,0.496,5.241,1.244c1.991,0.996,3.736,1.991,5.479,3.487c1.745,1.497,2.992,2.989,3.992,4.485
		c1.249,1.744,1.745,3.24,1.745,4.731c0,0.997-0.753,2.992-2.24,5.732c-1.247,2.74-2.991,6.228-5.24,10.216
		c-1.992,3.984-4.241,8.468-6.729,13.199c-2.496,4.985-4.736,9.969-6.729,14.949c-1.999,4.988-3.992,10.22-5.24,15.196
		c-1.496,4.983-2.239,9.472-2.239,13.704c0,4.24,2.239,6.232,6.479,6.232c2.745,0,5.985-1.249,9.722-3.489
		c3.487-2.496,7.479-5.231,11.463-8.719c3.993-3.736,7.985-7.472,11.969-11.464c3.992-4.231,7.729-7.972,11.216-11.459
		c3.489-3.484,6.481-6.477,8.976-8.715C-13073.892,1074.457-13072.149,1073.213-13070.909,1073.213L-13070.909,1073.213z
		 M-13103.813,1017.157c-2.983-1.991-4.736-4.731-4.983-8.72c-0.496-3.984,0.504-8.219,2.743-12.208
		c2.496-3.983,5.489-6.976,9.473-8.472c3.736-1.492,6.985-1.492,9.967,0.5c3.249,1.745,4.994,4.732,5.242,8.72
		c0.247,3.988-0.752,7.972-2.992,12.208c-2.498,3.984-5.489,6.724-9.225,8.468
		C-13097.581,1019.15-13100.821,1018.902-13103.813,1017.157L-13103.813,1017.157z M-13002.355,1073.213
		c1,0,1.249,1.244,0.248,3.488c-0.743,2.487-1.991,5.479-4.231,8.967c-2.001,3.735-4.486,7.719-7.729,12.208
		c-3.24,4.231-6.736,8.72-10.473,12.704c-3.735,3.984-7.728,7.72-11.968,10.959c-4.479,3.488-8.719,5.729-12.961,6.977
		c0.754,3.24,1.002,6.48,1.25,9.969c0.494,3.487,0.494,6.975,0.494,10.711c0,9.968-0.99,19.68-2.992,28.647
		c-1.99,8.968-4.982,16.944-8.72,23.424c-3.743,6.719-8.224,12.199-13.217,15.944c-5.231,3.983-10.969,5.976-17.2,5.976
		c-3.487,0-6.728-1-9.969-2.744c-2.991-1.744-5.983-4.232-8.223-7.472c-2.497-3.24-4.489-7.224-6.232-11.959
		c-1.496-4.728-2.248-10.208-2.248-16.193c0-5.976,0.752-12.952,1.999-20.423c1.24-7.48,2.993-15.448,5.233-23.92
		c2.238-8.472,4.984-17.44,7.977-26.656c3.238-8.967,6.728-18.184,10.471-27.656c-1.496-1.244-3.238-1.992-4.488-1.992
		c-2.495,0-3.743-0.496-4.24-1.244c-0.495-0.749-0.248-1.744,0.753-2.74c0.743-0.748,2.24-1.744,4.489-2.492
		c1.99-0.996,4.231-1.249,6.727-1.249h0.743c4.738-11.208,9.721-22.171,14.962-33.131c5.231-10.963,10.721-21.428,16.201-31.392
		c5.239-9.964,10.72-19.184,16.209-27.403c5.23-8.472,10.463-15.696,15.446-21.924c4.993-6.227,9.474-10.959,13.713-14.447
		c4.24-3.489,7.976-5.232,10.968-5.232c1.496,0,1.496,1.992,0.497,5.976c-1.239,3.988-3.241,9.468-6.232,16.444
		c-2.984,6.976-6.729,15.196-11.217,24.664c-4.488,9.468-9.225,19.679-14.457,30.891c-5.23,10.964-10.719,22.424-16.199,34.38
		c-5.735,12.208-11.216,24.168-16.456,36.371c4.488,6.232,8.224,13.952,10.968,22.92c4.487-2.488,9.225-5.976,14.455-10.464
		c5.49-4.728,10.474-9.216,15.209-13.952c4.736-4.48,8.978-8.468,12.713-11.956
		C-13006.339,1074.956-13003.603,1073.213-13002.355,1073.213L-13002.355,1073.213z M-13092.342,1207.739
		c2.992,0,5.985-1.496,8.977-4.479c3.24-2.744,5.977-6.976,8.225-12.455c2.487-5.488,4.488-11.712,5.983-19.185
		c1.497-7.48,2.241-15.696,2.241-24.663c0-6.48-0.744-13.208-2.241-19.688c-3.239-1.488-5.735-2.983-7.48-4.728
		c-6.479,15.945-11.72,30.64-15.704,44.344c-4.239,13.455-6.231,24.663-6.231,33.631c0,3.239,0.744,5.231,2.239,5.984
		C-13095.085,1207.491-13093.589,1207.739-13092.342,1207.739L-13092.342,1207.739z M-12926.32,1073.213
		c0.99,0,1.249,1.491,0.247,4.484c-0.999,2.987-2.744,6.476-5.231,10.959c-2.744,4.484-5.736,9.22-9.473,14.452
		c-3.496,5.233-7.479,9.959-11.969,14.448c-4.239,4.489-8.976,8.224-13.463,11.208c-4.737,2.993-9.473,4.241-13.961,4.241
		c-5.977,0-11.464-1-15.952-2.992c-4.737-2.24-8.722-4.984-11.961-8.473c-3.249-3.487-5.488-7.471-7.233-11.703
		c-1.494-4.241-2.494-8.721-2.494-13.208c0-4.985,1-10.212,2.494-15.696c1.745-5.48,3.984-10.712,6.729-15.944
		c2.744-4.979,5.984-9.715,9.472-14.447c3.745-4.484,7.481-8.472,11.473-11.708c3.737-3.488,7.729-6.232,11.712-8.225
		c3.992-1.991,7.729-2.987,11.217-2.987c2.744,0,5.735,0.496,8.728,1.496c2.992,0.744,5.729,2.24,8.224,4.232
		c2.498,1.745,4.489,4.236,6.233,7.224c1.495,2.992,2.249,6.729,2.249,10.717c0,2.239-0.754,4.732-2.249,7.72
		c-1.495,2.992-3.24,5.979-5.736,8.972c-2.239,2.989-4.984,5.729-7.977,8.721c-3.238,2.739-6.231,5.231-9.224,7.471
		c-3.24,2.244-6.233,3.987-9.215,5.48c-2.992,1.248-5.737,1.992-7.985,1.992c-1.992,0-3.736-0.248-5.48-0.744
		c-1.744-0.496-3.24-1.248-4.487-1.744c-1.249,3.488-2.24,7.224-2.992,10.712c-0.496,3.487-0.992,6.976-0.992,10.216
		c0,3.984,0.992,6.728,2.982,8.215c1.753,1.496,4.242,2.496,7.48,2.496c2.745,0,5.984-1.248,9.721-3.488
		c3.744-2.496,7.48-5.231,11.473-8.967c3.983-3.488,7.976-7.225,11.96-11.464c3.993-3.983,7.729-7.972,11.225-11.459
		c3.488-3.484,6.48-6.477,8.969-8.715C-12929.313,1074.457-12927.569,1073.213-12926.32,1073.213L-12926.32,1073.213z
		 M-12952.994,1041.821c-2,0-4.487,0.996-7.479,2.74c-2.745,1.744-5.735,4.236-8.728,7.476c-2.993,3.236-5.977,6.724-8.97,10.959
		c-2.99,4.236-5.734,8.72-8.232,13.452c3.249-0.995,6.233-2.24,9.226-4.484c2.991-1.992,5.984-4.236,8.729-6.724
		c2.488-2.492,4.982-5.232,7.232-7.972c2.238-2.992,4.231-5.484,5.479-7.724c1.496-2.244,2.495-3.988,2.991-5.484
		C-12952.25,1042.57-12952.25,1041.821-12952.994,1041.821L-12952.994,1041.821z"/>
</g>
</svg>
